<svg width="1000" height="1000" viewBox="0 0 1000 1000" fill="none" xmlns="http://www.w3.org/2000/svg">
<path d="M70.2965 -92.8441C54.4288 -92.8441 25.1345 -92.8441 -10.2628 -91.6235V325.82H71.5172C217.989 325.82 255.827 214.746 255.827 98.7896C255.827 -11.0642 213.106 -92.8441 70.2965 -92.8441ZM-234.853 775V772.559C-197.014 691.999 -186.029 645.617 -186.029 536.984V119.54C-186.029 9.68599 -197.014 -35.4761 -234.853 -116.035V-118.477H108.135C347.372 -118.477 435.255 -31.8143 435.255 97.569C435.255 196.437 383.99 281.879 264.371 324.6L405.961 606.558C453.564 701.764 479.196 734.72 543.888 767.676V775H293.666L82.5025 351.453H-10.2628V536.984C-10.2628 645.617 0.722557 691.999 38.5611 772.559V775H-234.853ZM540.703 1049.63L539.482 912.927C595.63 915.369 716.469 914.148 759.19 804.294L582.203 350.232C544.365 253.805 526.056 219.629 499.203 189.114V186.672H746.984V189.114C729.895 214.746 720.131 281.879 750.646 361.218L839.749 595.572L932.514 358.777C963.029 284.32 939.838 215.967 917.867 189.114V186.672H1064.34V189.114C1021.62 235.496 997.206 270.894 963.029 355.115L784.822 801.853C704.263 997.149 637.13 1030.1 540.703 1049.63ZM1294.42 709.088C1326.16 709.088 1354.23 698.102 1372.54 684.676V493.042C1280.99 515.013 1208.98 560.175 1208.98 630.97C1208.98 678.573 1239.49 709.088 1294.42 709.088ZM1490.94 790.868C1422.58 790.868 1384.75 754.25 1376.2 705.426C1339.58 751.809 1278.55 793.309 1201.66 793.309C1128.42 793.309 1068.61 757.912 1068.61 681.014C1068.61 554.072 1239.49 495.483 1372.54 471.071V363.659C1372.54 296.526 1344.47 258.688 1257.8 258.688C1211.42 258.688 1151.61 269.673 1097.91 303.85L1091.8 295.306C1146.73 225.732 1237.05 168.364 1355.45 168.364C1481.17 168.364 1528.78 235.496 1528.78 320.938V652.94C1528.78 682.235 1540.98 706.647 1578.82 706.647C1594.69 706.647 1613 701.764 1632.53 687.117L1634.97 690.779C1616.66 731.059 1577.6 790.868 1490.94 790.868ZM1894.28 772.559V775H1681.89V772.559C1702.64 709.088 1709.97 654.161 1709.97 547.969V406.38C1709.97 322.159 1688 273.335 1652.6 231.835V229.393L1861.32 162.261V281.879L1866.2 283.1C1908.92 224.511 1969.95 168.364 2066.38 168.364C2176.24 168.364 2243.37 235.496 2243.37 341.688V546.748C2243.37 654.161 2248.25 709.088 2272.66 772.559V775H2059.06V772.559C2081.03 709.088 2087.13 649.279 2087.13 549.19V362.438C2087.13 301.409 2059.06 250.144 1988.26 250.144C1939.44 250.144 1895.5 275.776 1866.2 311.173V547.969C1866.2 651.72 1871.09 709.088 1894.28 772.559ZM3401.94 472.292L3377.53 704.205C3351.9 722.514 3218.85 793.309 3046.75 793.309C2763.57 793.309 2565.83 595.572 2565.83 333.144C2565.83 70.7158 2774.56 -136.786 3063.84 -136.786C3196.88 -136.786 3303.07 -107.491 3372.65 -84.3L3397.06 126.863L3386.08 130.525C3261.57 -41.5791 3184.68 -111.153 3052.85 -111.153C2838.03 -111.153 2758.69 74.3776 2758.69 333.144C2758.69 593.131 2852.67 767.676 3047.97 767.676C3209.09 767.676 3295.75 646.837 3390.96 468.63L3401.94 472.292ZM3818.84 793.309C3643.08 793.309 3497.83 648.058 3499.05 482.057C3500.27 314.835 3644.3 168.364 3818.84 168.364C3993.39 168.364 4138.64 314.835 4138.64 482.057C4138.64 648.058 3994.61 793.309 3818.84 793.309ZM3818.84 770.118C3927.48 770.118 3973.86 640.734 3973.86 482.057C3973.86 323.379 3926.26 192.775 3818.84 192.775C3711.43 192.775 3665.05 323.379 3665.05 482.057C3665.05 640.734 3710.21 770.118 3818.84 770.118ZM4435.51 772.559V775H4223.13V772.559C4243.88 709.088 4251.2 654.161 4251.2 547.969V406.38C4251.2 322.159 4229.23 273.335 4193.83 231.835V229.393L4402.56 162.261V281.879L4407.44 283.1C4447.72 218.408 4511.19 168.364 4599.07 168.364C4685.73 168.364 4739.44 211.084 4754.09 283.1H4756.53C4798.03 218.408 4861.5 168.364 4949.38 168.364C5051.91 168.364 5108.06 230.614 5108.06 331.923V546.748C5108.06 654.161 5112.94 709.088 5136.13 772.559V775H4923.75V772.559C4945.72 709.088 4951.82 649.279 4951.82 549.19V351.453C4951.82 296.526 4932.29 250.144 4871.26 250.144C4829.76 250.144 4784.6 270.894 4756.53 314.835V546.748C4756.53 654.161 4762.63 709.088 4785.82 772.559V775H4573.44V772.559C4595.41 709.088 4601.51 649.279 4601.51 549.19V351.453C4601.51 296.526 4581.98 250.144 4519.73 250.144C4478.23 250.144 4434.29 270.894 4407.44 314.835V547.969C4407.44 651.72 4412.32 709.088 4435.51 772.559ZM5501.1 190.334C5421.76 190.334 5380.26 281.879 5374.16 394.174L5598.75 389.292V361.218C5598.75 242.82 5564.57 190.334 5501.1 190.334ZM5753.77 606.558C5720.81 713.97 5634.15 793.309 5501.1 793.309C5329 793.309 5216.7 661.485 5216.7 491.822C5216.7 297.747 5357.07 168.364 5507.2 168.364C5663.44 168.364 5758.65 301.409 5753.77 416.145L5374.16 414.924V418.586C5374.16 601.675 5460.82 673.69 5581.66 673.69C5659.78 673.69 5713.49 641.955 5746.44 602.896L5753.77 606.558ZM6214.07 191.555L6227.5 333.144L6218.96 335.585C6149.38 229.393 6088.35 190.334 6029.76 190.334C5972.4 190.334 5934.56 226.952 5934.56 275.776C5934.56 345.35 6011.45 370.983 6092.01 405.159C6177.46 441.777 6265.34 489.38 6265.34 610.219C6265.34 738.382 6157.93 793.309 6026.1 793.309C5957.75 793.309 5889.39 778.662 5838.13 759.132L5823.48 595.572L5832.03 593.131C5901.6 712.75 5968.73 771.338 6048.07 771.338C6121.31 771.338 6149.38 723.735 6149.38 678.573C6149.38 613.881 6093.23 584.587 6012.67 549.19C5929.67 512.572 5833.25 468.63 5833.25 344.129C5833.25 214.746 5941.88 168.364 6062.72 168.364C6120.09 168.364 6177.46 179.349 6214.07 191.555ZM6523.13 793.309C6438.91 793.309 6371.78 754.25 6371.78 635.852V211.084H6304.65V202.54L6515.81 47.5245H6528.01V186.672H6680.59V211.084H6528.01V630.97C6528.01 696.882 6560.97 724.956 6614.68 724.956C6657.4 724.956 6686.69 706.647 6690.35 704.205L6694.02 707.867C6663.5 755.47 6603.69 793.309 6523.13 793.309ZM7017.31 190.334C6937.97 190.334 6896.47 281.879 6890.37 394.174L7114.96 389.292V361.218C7114.96 242.82 7080.78 190.334 7017.31 190.334ZM7269.98 606.558C7237.02 713.97 7150.36 793.309 7017.31 793.309C6845.21 793.309 6732.91 661.485 6732.91 491.822C6732.91 297.747 6873.28 168.364 7023.41 168.364C7179.65 168.364 7274.86 301.409 7269.98 416.145L6890.37 414.924V418.586C6890.37 601.675 6977.03 673.69 7097.87 673.69C7175.99 673.69 7229.7 641.955 7262.65 602.896L7269.98 606.558ZM7570.53 775H7358.14V772.559C7378.89 709.088 7386.22 654.161 7386.22 547.969V406.38C7386.22 322.159 7364.25 273.335 7328.85 231.835V229.393L7537.57 162.261V311.173H7538.79C7588.84 257.467 7652.31 164.702 7743.85 168.364L7732.87 342.909H7726.76C7701.13 313.615 7638.88 290.423 7610.81 290.423C7591.28 290.423 7564.42 306.291 7542.45 334.365V547.969C7542.45 651.72 7547.34 709.088 7570.53 772.559V775Z" fill="#F5F5F5"/>
</svg>
