<svg width="28" height="28" viewBox="0 0 28 28" fill="none" xmlns="http://www.w3.org/2000/svg">
<g id="iconfinder_instagram-01-01_3066990 1" clip-path="url(#clip0_3_453)">
<g id="Instagram">
<path id="Vector" d="M21.1342 8.44322C22.0238 8.44322 22.745 7.72205 22.745 6.83245C22.745 5.94284 22.0238 5.22168 21.1342 5.22168C20.2446 5.22168 19.5234 5.94284 19.5234 6.83245C19.5234 7.72205 20.2446 8.44322 21.1342 8.44322Z" fill="#F5F5F5"/>
<path id="Vector_2" d="M14.0001 20.9953C10.1426 20.9953 7.00439 17.857 7.00439 13.9996C7.00439 10.1421 10.1427 7.00391 14.0001 7.00391C17.8575 7.00391 20.9958 10.1422 20.9958 13.9996C20.9958 17.8571 17.8575 20.9953 14.0001 20.9953ZM14.0001 9.19139C11.3488 9.19139 9.19188 11.3484 9.19188 13.9996C9.19188 16.6508 11.3488 18.8078 14.0001 18.8078C16.6514 18.8078 18.8083 16.6508 18.8083 13.9996C18.8083 11.3484 16.6514 9.19139 14.0001 9.19139Z" fill="#F5F5F5"/>
<path id="Vector_3" d="M18.4548 27.9999H9.5452C4.51937 27.9999 0.430664 23.9111 0.430664 18.8854V9.11405C0.430664 4.08827 4.51942 -0.000488281 9.5452 -0.000488281H18.4547C23.4806 -0.000488281 27.5693 4.08827 27.5693 9.11405V18.8854C27.5694 23.9111 23.4806 27.9999 18.4548 27.9999ZM9.5452 2.187C5.7256 2.187 2.61815 5.29445 2.61815 9.11405V18.8854C2.61815 22.705 5.7256 25.8124 9.5452 25.8124H18.4547C22.2743 25.8124 25.3818 22.705 25.3818 18.8854V9.11405C25.3818 5.29445 22.2743 2.187 18.4547 2.187H9.5452Z" fill="#F5F5F5"/>
</g>
</g>
<defs>
<clipPath id="clip0_3_453">
<rect width="28" height="28" fill="white"/>
</clipPath>
</defs>
</svg>
