<svg width="28" height="28" viewBox="0 0 28 28" fill="none" xmlns="http://www.w3.org/2000/svg">
<g id="iconfinder_linkedin-01-01_3066989 1">
<g id="Linkedin">
<path id="Vector" d="M0.866282 27.3304H6.60282L6.59586 7.23193H0.859375L0.866282 27.3304Z" fill="#F5F5F5"/>
<path id="Vector_2" d="M26.3877 12.6088C26.2473 11.8089 26.0194 11.0215 25.6705 10.2867C25.4689 9.8623 25.215 9.46119 24.914 9.09974C24.5627 8.67812 24.0955 8.29001 23.6208 8.01371C23.2142 7.77697 22.7506 7.56209 22.2969 7.43339C22.0279 7.36469 21.7516 7.31747 21.4712 7.2859C20.6296 7.1912 19.7522 7.23707 18.909 7.30204C18.6669 7.33026 18.4265 7.36442 18.1882 7.40533C17.95 7.44623 17.714 7.49393 17.4809 7.54752C17.0697 7.67428 16.712 7.87416 16.4063 8.13638C16.1006 8.39864 15.8469 8.72329 15.6431 9.09909C15.5261 9.31479 15.4249 9.54235 15.3589 9.77915C15.3555 9.79161 15.2959 10.0716 15.3081 10.0716H15.2189L15.2119 7.23194H9.47754L9.4845 27.3347H15.1809C15.1809 27.3347 15.1809 16.5543 15.1809 15.0799C15.1809 14.3947 15.621 13.8238 16.1857 13.4813C16.7332 13.1493 17.4101 13.1196 18.0326 13.0793C18.3167 13.0609 18.6127 13.0701 18.8956 13.0993C19.3869 13.1501 19.882 13.3053 20.2493 13.6488C20.8625 14.2224 20.9576 15.0971 20.9576 15.8894C20.9576 16.5296 20.9576 17.1698 20.9576 17.8101C20.9576 18.7772 20.9576 19.7442 20.9576 20.7112C20.9576 21.746 20.9576 22.7806 20.9576 23.8153C20.9576 24.6551 20.9576 25.4949 20.9576 26.3347C20.9576 26.6681 20.9576 27.0014 20.9576 27.3348H26.6003C26.6003 27.0018 26.6003 26.6688 26.6003 26.3358C26.6003 25.4818 26.6003 24.6278 26.6003 23.7737C26.6003 22.7222 26.6003 21.6705 26.6003 20.619C26.6003 18.8962 26.6003 17.1734 26.6003 15.4507C26.6003 14.5033 26.5519 13.5438 26.3877 12.6088Z" fill="#F5F5F5"/>
<path id="Vector_3" d="M3.7347 5.88494C5.32621 5.88494 6.61638 4.59476 6.61638 3.00326C6.61638 1.41175 5.32621 0.121582 3.7347 0.121582C2.1432 0.121582 0.853027 1.41175 0.853027 3.00326C0.853027 4.59476 2.1432 5.88494 3.7347 5.88494Z" fill="#F5F5F5"/>
</g>
</g>
</svg>
