<svg width="175" height="58" viewBox="0 0 175 58" fill="none" xmlns="http://www.w3.org/2000/svg">
<g id="Logo">
<g id="Vector">
<path d="M20.0241 28.5462H14.5896L11.3231 23.1774C11.0789 22.77 10.8446 22.4062 10.62 22.0861C10.3954 21.766 10.1659 21.4945 9.9315 21.2714C9.7069 21.0386 9.46764 20.864 9.21374 20.7476C8.96961 20.6215 8.70106 20.5584 8.40809 20.5584H7.1337V28.5462H2.40234V7.68188H9.90221C14.9998 7.68188 17.5486 9.57335 17.5486 13.3563C17.5486 14.0838 17.4362 14.7579 17.2116 15.3787C16.987 15.9898 16.6697 16.5427 16.2595 17.0374C15.8494 17.5321 15.3513 17.9589 14.7654 18.3178C14.1892 18.6767 13.5447 18.9579 12.8318 19.1616V19.2198C13.1443 19.3168 13.4471 19.4769 13.74 19.7C14.033 19.9134 14.3162 20.1656 14.5896 20.4566C14.8631 20.7476 15.1218 21.0628 15.366 21.4023C15.6199 21.7321 15.8494 22.057 16.0544 22.3771L20.0241 28.5462ZM7.1337 11.2029V17.0083H9.18445C10.2001 17.0083 11.0155 16.7173 11.6307 16.1353C12.2557 15.5436 12.5682 14.8113 12.5682 13.9383C12.5682 12.1147 11.4696 11.2029 9.27234 11.2029H7.1337Z" fill="#F5F5F5"/>
<path d="M37.8363 7.68188L30.9956 21.1259V28.5462H26.2642V21.2132L19.5993 7.68188H25.0045L28.3882 15.466C28.4468 15.6115 28.6079 16.1789 28.8716 17.1683H28.9302C29.0571 16.4699 29.2085 15.9219 29.3843 15.5242L32.8266 7.68188H37.8363Z" fill="#F5F5F5"/>
<path d="M58.6953 28.5462H53.5391L52.045 23.9049H44.5744L43.095 28.5462H37.9681L45.6144 7.68188H51.2247L58.6953 28.5462ZM50.961 20.2965L48.7052 13.2835C48.5392 12.7597 48.422 12.1341 48.3536 11.4066H48.2365C48.1876 12.0177 48.0656 12.624 47.8703 13.2253L45.5851 20.2965H50.961Z" fill="#F5F5F5"/>
<path d="M80.2134 28.5462H75.4381L66.7811 15.4369C66.2732 14.6706 65.9217 14.0935 65.7264 13.7055H65.6678C65.7459 14.4427 65.785 15.5679 65.785 17.081V28.5462H61.3173V7.68188H66.4148L74.7496 20.3838C75.1305 20.9561 75.4821 21.5236 75.8043 22.0861H75.8629C75.7848 21.6012 75.7457 20.6457 75.7457 19.2198V7.68188H80.2134V28.5462Z" fill="#F5F5F5"/>
<path d="M36.9297 50.1508C35.3965 50.888 33.3946 51.2566 30.924 51.2566C27.7014 51.2566 25.1672 50.3157 23.3216 48.4339C21.4759 46.5522 20.5531 44.0448 20.5531 40.9117C20.5531 37.575 21.5882 34.8687 23.6585 32.7929C25.7385 30.7172 28.4338 29.6793 31.7443 29.6793C33.795 29.6793 35.5235 29.9363 36.9297 30.4504V34.9754C35.5235 34.1412 33.922 33.7241 32.1251 33.7241C30.1525 33.7241 28.5607 34.3401 27.3498 35.5719C26.1389 36.8038 25.5334 38.4722 25.5334 40.5771C25.5334 42.5946 26.1047 44.2048 27.2473 45.4076C28.3898 46.6007 29.9279 47.1972 31.8614 47.1972C33.7071 47.1972 35.3965 46.751 36.9297 45.8586V50.1508Z" fill="#F5F5F5"/>
<path d="M49.4685 51.2566C46.4608 51.2566 44.0097 50.2866 42.1152 48.3466C40.2207 46.397 39.2734 43.8605 39.2734 40.7371C39.2734 37.4392 40.2353 34.7717 42.1591 32.7347C44.0829 30.6978 46.6317 29.6793 49.8055 29.6793C52.8034 29.6793 55.2253 30.6541 57.0709 32.6038C58.9264 34.5535 59.8541 37.1239 59.8541 40.3152C59.8541 43.5937 58.8922 46.2369 56.9684 48.2448C55.0544 50.2526 52.5544 51.2566 49.4685 51.2566ZM49.6736 33.7241C48.0135 33.7241 46.6952 34.3449 45.7186 35.5865C44.7421 36.8184 44.2538 38.4528 44.2538 40.4898C44.2538 42.5558 44.7421 44.1903 45.7186 45.393C46.6952 46.5958 47.9744 47.1972 49.5564 47.1972C51.1873 47.1972 52.4812 46.6152 53.4382 45.4512C54.3952 44.2775 54.8737 42.6528 54.8737 40.5771C54.8737 38.414 54.4099 36.7311 53.4821 35.5283C52.5544 34.3255 51.2849 33.7241 49.6736 33.7241Z" fill="#F5F5F5"/>
<path d="M84.6974 50.8928H80.4494V38.4091C80.4494 37.0609 80.508 35.5719 80.6252 33.9424H80.508C80.4397 34.2528 80.3615 34.5632 80.2736 34.8736C80.1858 35.184 80.0979 35.4798 80.01 35.7611C79.9221 36.0327 79.8342 36.28 79.7463 36.5031C79.6682 36.7165 79.5998 36.8911 79.5412 37.0269L75.5569 44.6364H72.2464L68.394 36.9978C68.3549 36.9105 68.3012 36.7747 68.2328 36.5904C68.1645 36.3964 68.0912 36.1685 68.0131 35.9066C67.935 35.635 67.852 35.3343 67.7641 35.0045C67.686 34.6747 67.6176 34.3207 67.559 33.9424H67.4272C67.4956 34.8542 67.5444 35.6932 67.5737 36.4595C67.603 37.2258 67.6176 37.8708 67.6176 38.3946V50.8928H63.355V30.0285H69.1557L72.8617 37.2743C72.9691 37.5071 73.0765 37.7544 73.1839 38.0163C73.2913 38.2782 73.3939 38.5401 73.4915 38.802C73.599 39.0639 73.6917 39.3209 73.7699 39.5731C73.8577 39.8156 73.9212 40.0436 73.9603 40.257H74.0335C74.0921 40.0436 74.1556 39.8059 74.2239 39.544C74.2923 39.2724 74.3655 39.0008 74.4437 38.7292C74.5218 38.4576 74.6048 38.1958 74.6927 37.9436C74.7806 37.6817 74.8734 37.4489 74.971 37.2452L78.7795 30.0285H84.6974V50.8928Z" fill="#F5F5F5"/>
<path d="M102.114 50.8928H89.5166V30.0285H101.631V33.8551H94.248V38.4964H101.118V42.3085H94.248V47.0808H102.114V50.8928Z" fill="#F5F5F5"/>
<path d="M104.516 50.0926V45.4367C105.366 46.1448 106.289 46.6783 107.285 47.0372C108.281 47.3863 109.287 47.5609 110.302 47.5609C110.898 47.5609 111.416 47.5076 111.855 47.4009C112.304 47.2942 112.675 47.1487 112.968 46.9644C113.271 46.7704 113.496 46.5473 113.642 46.2951C113.789 46.0332 113.862 45.7519 113.862 45.4512C113.862 45.0438 113.745 44.6801 113.51 44.36C113.276 44.0399 112.954 43.7441 112.544 43.4725C112.143 43.2009 111.665 42.939 111.108 42.6868C110.551 42.4346 109.951 42.1775 109.306 41.9156C107.666 41.2366 106.44 40.4073 105.63 39.4276C104.829 38.4479 104.428 37.2646 104.428 35.8775C104.428 34.7911 104.648 33.8599 105.088 33.0839C105.527 32.2982 106.123 31.6532 106.875 31.1488C107.636 30.6444 108.515 30.2758 109.511 30.043C110.507 29.8005 111.562 29.6793 112.675 29.6793C113.769 29.6793 114.736 29.7472 115.576 29.883C116.425 30.0091 117.207 30.2079 117.919 30.4795V34.8299C117.568 34.5874 117.182 34.374 116.762 34.1897C116.352 34.0054 115.927 33.8551 115.488 33.7387C115.048 33.6126 114.609 33.5204 114.169 33.4622C113.74 33.404 113.33 33.3749 112.939 33.3749C112.402 33.3749 111.914 33.4283 111.474 33.535C111.035 33.632 110.664 33.7726 110.361 33.9569C110.058 34.1412 109.824 34.3643 109.658 34.6262C109.492 34.8784 109.409 35.1646 109.409 35.4846C109.409 35.8338 109.502 36.1491 109.687 36.4304C109.873 36.702 110.136 36.9639 110.478 37.2161C110.82 37.4586 111.235 37.7011 111.723 37.9436C112.212 38.1764 112.763 38.4188 113.379 38.671C114.218 39.0202 114.97 39.3937 115.634 39.7914C116.308 40.1794 116.884 40.6207 117.363 41.1154C117.841 41.6101 118.208 42.1775 118.461 42.8177C118.715 43.4482 118.842 44.1854 118.842 45.0293C118.842 46.1933 118.618 47.173 118.168 47.9683C117.729 48.754 117.128 49.3942 116.367 49.8889C115.605 50.3739 114.716 50.7231 113.701 50.9365C112.695 51.1499 111.63 51.2566 110.507 51.2566C109.355 51.2566 108.257 51.1596 107.212 50.9656C106.176 50.7716 105.278 50.4806 104.516 50.0926Z" fill="#F5F5F5"/>
<path d="M137.05 33.8551H131.059V50.8928H126.313V33.8551H120.351V30.0285H137.05V33.8551Z" fill="#F5F5F5"/>
<path d="M152.474 50.8928H139.877V30.0285H151.991V33.8551H144.608V38.4964H151.478V42.3085H144.608V47.0808H152.474V50.8928Z" fill="#F5F5F5"/>
<path d="M174.103 48.1414L168.723 48.9511L164.678 44.1227C164.375 43.7557 164.088 43.4305 163.818 43.1471C163.547 42.8637 163.279 42.629 163.013 42.443C162.755 42.246 162.492 42.1088 162.223 42.0314C161.962 41.943 161.687 41.9205 161.397 41.9642L160.135 42.1541L161.342 50.062L156.658 50.7669L153.507 30.1112L160.932 28.9938C165.978 28.2343 168.787 29.7271 169.358 33.4722C169.468 34.1924 169.459 34.8766 169.33 35.5246C169.2 36.1631 168.97 36.7577 168.638 37.3086C168.307 37.8594 167.878 38.3561 167.352 38.7988C166.836 39.2399 166.241 39.6144 165.566 39.9223L165.574 39.9799C165.898 40.0294 166.222 40.1427 166.546 40.3199C166.868 40.4875 167.187 40.695 167.501 40.9424C167.816 41.1897 168.12 41.4632 168.413 41.763C168.714 42.0516 168.99 42.3391 169.242 42.6255L174.103 48.1414ZM158.723 32.8921L159.599 38.6394L161.63 38.3339C162.635 38.1826 163.398 37.773 163.919 37.1052C164.449 36.4263 164.648 35.6547 164.516 34.7904C164.24 32.9851 163.015 32.2461 160.84 32.5735L158.723 32.8921Z" fill="#F5F5F5"/>
</g>
</g>
</svg>
