<svg width="20" height="20" viewBox="0 0 20 20" fill="none" xmlns="http://www.w3.org/2000/svg">
<path fill-rule="evenodd" clip-rule="evenodd" d="M9.21399 4.81668C9.26235 4.55596 9.41228 4.32513 9.63081 4.17494C9.84934 4.02475 10.1186 3.9675 10.3793 4.01578L15.9414 5.04666C16.2022 5.09502 16.433 5.24495 16.5832 5.46348C16.7334 5.68201 16.7906 5.95124 16.7423 6.21197L15.7115 11.7741C15.6895 11.9051 15.6417 12.0303 15.5709 12.1426C15.5 12.2549 15.4075 12.352 15.2987 12.4282C15.19 12.5043 15.0671 12.558 14.9373 12.5862C14.8076 12.6144 14.6735 12.6164 14.5429 12.5922C14.4124 12.568 14.288 12.5181 14.1769 12.4453C14.0659 12.3725 13.9704 12.2783 13.8962 12.1682C13.8219 12.0581 13.7703 11.9344 13.7444 11.8041C13.7185 11.6739 13.7188 11.5398 13.7452 11.4097L14.3362 8.2212L4.78787 14.7836C4.5693 14.9338 4.3 14.991 4.03923 14.9427C3.77845 14.8944 3.54756 14.7444 3.39734 14.5259C3.24712 14.3073 3.18988 14.038 3.23821 13.7772C3.28654 13.5164 3.43649 13.2855 3.65506 13.1353L13.2034 6.57295L10.0149 5.98199C9.75417 5.93363 9.52334 5.7837 9.37315 5.56517C9.22296 5.34664 9.16571 5.07741 9.21399 4.81668Z" fill="#15141A"/>
</svg>
