<svg width="28" height="28" viewBox="0 0 28 28" fill="none" xmlns="http://www.w3.org/2000/svg">
<g id="iconfinder_twitter-01-01_3066980 1">
<g id="Twitter">
<path id="Twitter 1" d="M24.8496 6.32111C24.8496 6.32111 27.324 4.23859 27.2456 3.30926C27.2456 3.30926 24.3906 4.56324 23.7636 4.61923C23.7636 4.61923 23.565 4.41947 23.24 4.15682C23.1317 4.06927 23.0093 3.97472 22.8755 3.87829C22.6276 3.69732 22.3666 3.5418 22.0957 3.41005C21.9602 3.3442 21.8223 3.28422 21.6825 3.22969C20.7723 2.83083 19.7751 2.73313 18.7962 2.84022C18.6564 2.85554 18.517 2.87503 18.3782 2.89837C16.7547 3.15252 15.3663 4.1378 14.4925 5.48116C14.4141 5.6037 14.3414 5.72949 14.2751 5.85847C14.1428 6.11642 14.0361 6.38715 13.9611 6.66958C13.9316 6.77385 13.8994 6.89526 13.869 7.0249C13.8386 7.15453 13.8099 7.29239 13.7875 7.42954C13.6979 7.97819 13.7875 9.75841 13.7875 9.75841C13.7875 9.75841 6.56582 9.98236 1.93047 3.98106C1.93047 3.98106 -0.353547 8.30288 3.58755 11.3259C3.58755 11.3259 2.78606 11.6842 1.2722 10.7885C1.2722 10.7885 0.519752 14.0802 5.40136 16.3419H3.02782C3.02782 16.3419 3.85635 19.9919 8.2678 20.3278C8.2678 20.3278 6.18528 23.1268 0.13916 22.7013C0.13916 22.7013 5.59417 26.4943 12.622 24.734C12.7474 24.7025 12.8735 24.6693 12.9999 24.6343C14.1123 24.2912 15.2319 23.8882 16.2489 23.3476C16.3376 23.3017 16.4264 23.2545 16.5152 23.2064C16.7819 23.0621 17.0496 22.9084 17.3183 22.7453C17.3183 22.7453 24.7075 18.7416 25.3121 8.39673C25.3121 8.39673 26.865 7.48548 27.8614 5.73888C27.8614 5.73893 25.0624 6.38828 24.8496 6.32111Z" fill="#F5F5F5"/>
</g>
</g>
</svg>
