<svg width="978" height="377" viewBox="0 0 978 377" fill="none" xmlns="http://www.w3.org/2000/svg">
<path d="M0.970172 305.08V244.533L152.781 5.36363H204.983V89.1704H174.088L78.3849 240.626V243.467H294.116V305.08H0.970172ZM175.509 369V286.614L176.929 259.803V5.36363H249.017V369H175.509ZM487.92 376.99C457.38 376.872 431.102 369.355 409.085 354.44C387.186 339.526 370.318 317.923 358.481 289.632C346.762 261.341 340.962 227.31 341.08 187.537C341.08 147.883 346.94 114.088 358.658 86.152C370.496 58.2164 387.363 36.9687 409.262 22.4091C431.279 7.73105 457.498 0.392032 487.92 0.392032C518.341 0.392032 544.501 7.73105 566.4 22.4091C588.417 37.0871 605.344 58.3939 617.181 86.3295C629.018 114.147 634.878 147.883 634.759 187.537C634.759 227.428 628.841 261.519 617.004 289.81C605.285 318.1 588.476 339.703 566.577 354.618C544.679 369.533 518.46 376.99 487.92 376.99ZM487.92 313.247C508.753 313.247 525.384 302.771 537.813 281.82C550.242 260.868 556.397 229.44 556.279 187.537C556.279 159.956 553.438 136.992 547.756 118.645C542.193 100.297 534.262 86.5071 523.964 77.2741C513.784 68.0412 501.769 63.4247 487.92 63.4247C467.205 63.4247 450.633 73.7822 438.204 94.4972C425.775 115.212 419.501 146.225 419.383 187.537C419.383 215.473 422.165 238.792 427.728 257.494C433.41 276.079 441.4 290.046 451.698 299.398C461.996 308.631 474.07 313.247 487.92 313.247ZM684.076 305.08V244.533L835.887 5.36363H888.088V89.1704H857.194L761.49 240.626V243.467H977.222V305.08H684.076ZM858.614 369V286.614L860.034 259.803V5.36363H932.123V369H858.614Z" fill="black" fill-opacity="0.1"/>
</svg>
