<svg width="254" height="84" viewBox="0 0 254 84" fill="none" xmlns="http://www.w3.org/2000/svg">
<path d="M29.449 41.3428H21.5923L16.8699 33.5672C16.5169 32.9772 16.1781 32.4504 15.8534 31.9868C15.5286 31.5232 15.1969 31.1299 14.858 30.8068C14.5333 30.4696 14.1874 30.2168 13.8204 30.0482C13.4674 29.8656 13.0792 29.7743 12.6556 29.7743H10.8132V41.3428H3.97302V11.1255H14.8157C22.1853 11.1255 25.8701 13.8649 25.8701 19.3436C25.8701 20.3972 25.7078 21.3735 25.383 22.2726C25.0583 23.1576 24.5995 23.9584 24.0065 24.6748C23.4136 25.3913 22.6935 26.0094 21.8465 26.5292C21.0135 27.0489 20.0817 27.4563 19.0511 27.7513V27.8356C19.5029 27.9761 19.9405 28.2079 20.3641 28.531C20.7876 28.8401 21.197 29.2053 21.5923 29.6268C21.9876 30.0482 22.3618 30.5048 22.7147 30.9964C23.0818 31.4741 23.4136 31.9447 23.71 32.4083L29.449 41.3428ZM10.8132 16.2249V24.6327H13.778C15.2463 24.6327 16.4251 24.2112 17.3146 23.3684C18.2181 22.5114 18.6699 21.4508 18.6699 20.1865C18.6699 17.5454 17.0816 16.2249 13.9051 16.2249H10.8132Z" fill="#F5F5F5"/>
<path d="M55.2003 11.1255L45.3107 30.5961V41.3428H38.4705V30.7225L28.8349 11.1255H36.6492L41.5411 22.399C41.6258 22.6098 41.8588 23.4316 42.24 24.8645H42.3247C42.5082 23.853 42.7271 23.0593 42.9812 22.4833L47.9578 11.1255H55.2003Z" fill="#F5F5F5"/>
<path d="M85.3565 41.3428H77.9022L75.7421 34.6208H64.9418L62.8029 41.3428H55.3909L66.4454 11.1255H74.5562L85.3565 41.3428ZM74.175 29.395L70.9137 19.2382C70.6737 18.4796 70.5043 17.5735 70.4055 16.5199H70.2361C70.1655 17.405 69.989 18.283 69.7066 19.1539L66.403 29.395H74.175Z" fill="#F5F5F5"/>
<path d="M116.466 41.3428H109.562L97.0462 22.3569C96.3121 21.2471 95.8038 20.4112 95.5215 19.8493H95.4368C95.5497 20.917 95.6062 22.5465 95.6062 24.738V41.3428H89.1472V11.1255H96.5168L108.567 29.5214C109.117 30.3502 109.625 31.172 110.091 31.9868H110.176C110.063 31.2844 110.007 29.9007 110.007 27.8356V11.1255H116.466V41.3428Z" fill="#F5F5F5"/>
<path d="M53.8897 72.6322C51.6732 73.6998 48.779 74.2337 45.2071 74.2337C40.5482 74.2337 36.8845 72.871 34.2162 70.1457C31.5479 67.4204 30.2138 63.7889 30.2138 59.2514C30.2138 54.4189 31.7103 50.4995 34.7033 47.4932C37.7105 44.4869 41.607 42.9838 46.393 42.9838C49.3578 42.9838 51.8567 43.3561 53.8897 44.1006V50.654C51.8567 49.4459 49.5414 48.8418 46.9437 48.8418C44.0918 48.8418 41.7906 49.7339 40.0399 51.518C38.2893 53.3021 37.414 55.7184 37.414 58.7668C37.414 61.6888 38.2399 64.0207 39.8917 65.7627C41.5435 67.4906 43.7671 68.3546 46.5625 68.3546C49.2308 68.3546 51.6732 67.7084 53.8897 66.4159V72.6322Z" fill="#F5F5F5"/>
<path d="M72.0173 74.2337C67.6689 74.2337 64.1253 72.8289 61.3864 70.0193C58.6475 67.1956 57.2781 63.522 57.2781 58.9986C57.2781 54.2222 58.6687 50.359 61.4499 47.4089C64.2312 44.4588 67.916 42.9838 72.5044 42.9838C76.8386 42.9838 80.3399 44.3956 83.0082 47.2193C85.6906 50.0429 87.0318 53.7657 87.0318 58.3875C87.0318 63.1357 85.6412 66.9638 82.86 69.8718C80.0928 72.7797 76.4786 74.2337 72.0173 74.2337ZM72.3138 48.8418C69.9137 48.8418 68.0078 49.7409 66.596 51.5391C65.1842 53.3232 64.4783 55.6903 64.4783 58.6403C64.4783 61.6326 65.1842 63.9997 66.596 65.7416C68.0078 67.4836 69.8572 68.3546 72.1444 68.3546C74.5021 68.3546 76.3727 67.5117 77.7563 65.8259C79.1399 64.1261 79.8316 61.7731 79.8316 58.7668C79.8316 55.6341 79.161 53.1967 77.8198 51.4548C76.4786 49.7128 74.6433 48.8418 72.3138 48.8418Z" fill="#F5F5F5"/>
<path d="M122.948 73.7069H116.807V55.627C116.807 53.6744 116.892 51.518 117.061 49.1579H116.892C116.793 49.6075 116.68 50.057 116.553 50.5065C116.426 50.9561 116.299 51.3845 116.171 51.7919C116.044 52.1853 115.917 52.5435 115.79 52.8666C115.677 53.1757 115.579 53.4285 115.494 53.6252L109.734 64.6459H104.948L99.3781 53.583C99.3216 53.4566 99.244 53.2599 99.1451 52.993C99.0463 52.7121 98.9404 52.3819 98.8275 52.0026C98.7145 51.6093 98.5945 51.1738 98.4675 50.6962C98.3545 50.2185 98.2557 49.7058 98.171 49.1579H97.9804C98.0792 50.4784 98.1498 51.6936 98.1922 52.8034C98.2345 53.9132 98.2557 54.8474 98.2557 55.606V73.7069H92.0932V43.4895H100.479L105.837 53.9834C105.992 54.3206 106.148 54.6788 106.303 55.0581C106.458 55.4374 106.607 55.8167 106.748 56.196C106.903 56.5753 107.037 56.9476 107.15 57.3128C107.277 57.664 107.369 57.9941 107.425 58.3032H107.531C107.616 57.9941 107.708 57.65 107.807 57.2707C107.905 56.8773 108.011 56.484 108.124 56.0906C108.237 55.6973 108.357 55.318 108.484 54.9527C108.611 54.5734 108.745 54.2363 108.887 53.9413L114.393 43.4895H122.948V73.7069Z" fill="#F5F5F5"/>
<path d="M148.128 73.7069H129.915V43.4895H147.429V49.0315H136.756V55.7535H146.688V61.2744H136.756V68.186H148.128V73.7069Z" fill="#F5F5F5"/>
<path d="M151.601 72.5479V65.8048C152.829 66.8304 154.163 67.603 155.603 68.1228C157.043 68.6285 158.497 68.8814 159.966 68.8814C160.827 68.8814 161.575 68.8041 162.21 68.6496C162.86 68.495 163.396 68.2843 163.82 68.0174C164.258 67.7364 164.582 67.4133 164.794 67.0481C165.006 66.6688 165.112 66.2614 165.112 65.8259C165.112 65.2359 164.942 64.7091 164.603 64.2455C164.265 63.7819 163.799 63.3535 163.206 62.9601C162.627 62.5668 161.935 62.1875 161.13 61.8222C160.326 61.457 159.457 61.0847 158.526 60.7054C156.154 59.722 154.382 58.5209 153.21 57.1021C152.052 55.6832 151.474 53.9694 151.474 51.9605C151.474 50.3871 151.791 49.0385 152.427 47.9147C153.062 46.7768 153.923 45.8426 155.01 45.1121C156.111 44.3816 157.382 43.8478 158.822 43.5106C160.262 43.1594 161.787 42.9838 163.396 42.9838C164.978 42.9838 166.375 43.0821 167.589 43.2788C168.818 43.4614 169.947 43.7494 170.978 44.1428V50.4433C170.469 50.0921 169.912 49.7831 169.305 49.5161C168.712 49.2492 168.098 49.0315 167.462 48.8629C166.827 48.6803 166.192 48.5468 165.556 48.4625C164.935 48.3783 164.342 48.3361 163.778 48.3361C163.001 48.3361 162.295 48.4134 161.66 48.5679C161.025 48.7084 160.488 48.9121 160.05 49.179C159.613 49.4459 159.274 49.769 159.034 50.1483C158.794 50.5136 158.674 50.928 158.674 51.3916C158.674 51.8973 158.808 52.3538 159.076 52.7612C159.344 53.1546 159.726 53.5339 160.22 53.8991C160.714 54.2503 161.314 54.6015 162.02 54.9527C162.726 55.2899 163.523 55.6411 164.413 56.0063C165.627 56.5121 166.714 57.0529 167.674 57.6289C168.648 58.1908 169.481 58.83 170.173 59.5464C170.865 60.2629 171.394 61.0847 171.761 62.0119C172.128 62.925 172.312 63.9926 172.312 65.2148C172.312 66.9006 171.987 68.3194 171.338 69.4714C170.702 70.6093 169.834 71.5364 168.733 72.2529C167.632 72.9553 166.347 73.461 164.879 73.7701C163.425 74.0791 161.886 74.2337 160.262 74.2337C158.596 74.2337 157.008 74.0932 155.497 73.8122C154.001 73.5313 152.702 73.1098 151.601 72.5479Z" fill="#F5F5F5"/>
<path d="M198.635 49.0315H189.974V73.7069H183.112V49.0315H174.493V43.4895H198.635V49.0315Z" fill="#F5F5F5"/>
<path d="M220.934 73.7069H202.722V43.4895H220.236V49.0315H209.562V55.7535H219.494V61.2744H209.562V68.186H220.934V73.7069Z" fill="#F5F5F5"/>
<path d="M252.203 69.7221L244.425 70.8947L238.578 63.9018C238.139 63.3703 237.725 62.8994 237.333 62.4889C236.942 62.0784 236.554 61.7385 236.17 61.4692C235.798 61.1839 235.417 60.9852 235.028 60.8731C234.651 60.745 234.253 60.7125 233.834 60.7757L232.01 61.0507L233.754 72.5036L226.982 73.5245L222.427 43.6094L233.161 41.991C240.457 40.8911 244.518 43.0531 245.344 48.477C245.503 49.5201 245.489 50.5109 245.303 51.4494C245.115 52.3741 244.782 53.2353 244.303 54.0331C243.824 54.8309 243.204 55.5503 242.444 56.1913C241.697 56.8302 240.836 57.3726 239.861 57.8185L239.873 57.9019C240.342 57.9736 240.81 58.1377 241.278 58.3944C241.744 58.6371 242.204 58.9376 242.659 59.2958C243.114 59.6541 243.553 60.0502 243.977 60.4843C244.412 60.9024 244.812 61.3188 245.175 61.7335L252.203 69.7221ZM229.967 47.6369L231.235 55.9606L234.17 55.518C235.624 55.2989 236.727 54.7057 237.481 53.7385C238.246 52.7553 238.533 51.6378 238.343 50.3862C237.945 47.7715 236.173 46.7013 233.028 47.1754L229.967 47.6369Z" fill="#F5F5F5"/>
</svg>
