<svg width="175" height="58" viewBox="0 0 175 58" fill="none" xmlns="http://www.w3.org/2000/svg">
<g id="Logo">
<g id="Vector">
<path d="M20.0241 28.5465H14.5896L11.3231 23.1776C11.0789 22.7702 10.8446 22.4065 10.62 22.0864C10.3954 21.7663 10.1659 21.4947 9.9315 21.2716C9.7069 21.0388 9.46764 20.8642 9.21374 20.7478C8.96961 20.6217 8.70106 20.5587 8.40809 20.5587H7.1337V28.5465H2.40234V7.68213H9.90221C14.9998 7.68213 17.5486 9.5736 17.5486 13.3565C17.5486 14.084 17.4362 14.7582 17.2116 15.379C16.987 15.99 16.6697 16.5429 16.2595 17.0376C15.8494 17.5323 15.3513 17.9591 14.7654 18.318C14.1892 18.6769 13.5447 18.9582 12.8318 19.1619V19.2201C13.1443 19.3171 13.4471 19.4771 13.74 19.7002C14.033 19.9136 14.3162 20.1658 14.5896 20.4568C14.8631 20.7478 15.1218 21.0631 15.366 21.4025C15.6199 21.7323 15.8494 22.0573 16.0544 22.3774L20.0241 28.5465ZM7.1337 11.2032V17.0085H9.18445C10.2001 17.0085 11.0155 16.7175 11.6307 16.1355C12.2557 15.5438 12.5682 14.8115 12.5682 13.9385C12.5682 12.115 11.4696 11.2032 9.27234 11.2032H7.1337Z" fill="#212129"/>
<path d="M37.8363 7.68213L30.9956 21.1261V28.5465H26.2642V21.2134L19.5993 7.68213H25.0045L28.3882 15.4662C28.4468 15.6117 28.6079 16.1792 28.8716 17.1686H28.9302C29.0571 16.4702 29.2085 15.9221 29.3843 15.5244L32.8266 7.68213H37.8363Z" fill="#212129"/>
<path d="M58.6953 28.5465H53.5391L52.045 23.9051H44.5744L43.095 28.5465H37.9681L45.6144 7.68213H51.2247L58.6953 28.5465ZM50.961 20.2968L48.7052 13.2838C48.5392 12.76 48.422 12.1344 48.3536 11.4069H48.2365C48.1876 12.018 48.0656 12.6242 47.8703 13.2256L45.5851 20.2968H50.961Z" fill="#212129"/>
<path d="M80.2134 28.5465H75.4381L66.7811 15.4371C66.2732 14.6709 65.9217 14.0937 65.7264 13.7057H65.6678C65.7459 14.4429 65.785 15.5681 65.785 17.0813V28.5465H61.3173V7.68213H66.4148L74.7496 20.3841C75.1305 20.9564 75.4821 21.5238 75.8043 22.0864H75.8629C75.7848 21.6014 75.7457 20.646 75.7457 19.2201V7.68213H80.2134V28.5465Z" fill="#212129"/>
<path d="M36.9297 50.151C35.3965 50.8882 33.3946 51.2568 30.924 51.2568C27.7014 51.2568 25.1672 50.3159 23.3216 48.4342C21.4759 46.5524 20.5531 44.045 20.5531 40.9119C20.5531 37.5752 21.5882 34.8689 23.6585 32.7932C25.7385 30.7174 28.4338 29.6795 31.7443 29.6795C33.795 29.6795 35.5235 29.9366 36.9297 30.4507V34.9756C35.5235 34.1415 33.922 33.7244 32.1251 33.7244C30.1525 33.7244 28.5607 34.3403 27.3498 35.5722C26.1389 36.8041 25.5334 38.4724 25.5334 40.5773C25.5334 42.5949 26.1047 44.205 27.2473 45.4078C28.3898 46.6009 29.9279 47.1974 31.8614 47.1974C33.7071 47.1974 35.3965 46.7513 36.9297 45.8589V50.151Z" fill="#212129"/>
<path d="M49.4685 51.2568C46.4608 51.2568 44.0097 50.2868 42.1152 48.3469C40.2207 46.3972 39.2734 43.8607 39.2734 40.7374C39.2734 37.4394 40.2353 34.772 42.1591 32.735C44.0829 30.698 46.6317 29.6795 49.8055 29.6795C52.8034 29.6795 55.2253 30.6544 57.0709 32.604C58.9264 34.5537 59.8541 37.1242 59.8541 40.3154C59.8541 43.594 58.8922 46.2372 56.9684 48.245C55.0544 50.2529 52.5544 51.2568 49.4685 51.2568ZM49.6736 33.7244C48.0135 33.7244 46.6952 34.3452 45.7186 35.5867C44.7421 36.8186 44.2538 38.453 44.2538 40.49C44.2538 42.5561 44.7421 44.1905 45.7186 45.3933C46.6952 46.5961 47.9744 47.1974 49.5564 47.1974C51.1873 47.1974 52.4812 46.6155 53.4382 45.4515C54.3952 44.2778 54.8737 42.6531 54.8737 40.5773C54.8737 38.4142 54.4099 36.7313 53.4821 35.5285C52.5544 34.3258 51.2849 33.7244 49.6736 33.7244Z" fill="#212129"/>
<path d="M84.6974 50.8931H80.4494V38.4094C80.4494 37.0611 80.508 35.5722 80.6252 33.9426H80.508C80.4397 34.253 80.3615 34.5634 80.2736 34.8738C80.1858 35.1842 80.0979 35.48 80.01 35.7613C79.9221 36.0329 79.8342 36.2803 79.7463 36.5034C79.6682 36.7168 79.5998 36.8914 79.5412 37.0272L75.5569 44.6367H72.2464L68.394 36.9981C68.3549 36.9108 68.3012 36.775 68.2328 36.5907C68.1645 36.3967 68.0912 36.1687 68.0131 35.9068C67.935 35.6352 67.852 35.3345 67.7641 35.0047C67.686 34.675 67.6176 34.3209 67.559 33.9426H67.4272C67.4956 34.8544 67.5444 35.6934 67.5737 36.4597C67.603 37.226 67.6176 37.871 67.6176 38.3948V50.8931H63.355V30.0287H69.1557L72.8617 37.2745C72.9691 37.5073 73.0765 37.7547 73.1839 38.0165C73.2913 38.2784 73.3939 38.5403 73.4915 38.8022C73.599 39.0641 73.6917 39.3212 73.7699 39.5734C73.8577 39.8159 73.9212 40.0438 73.9603 40.2572H74.0335C74.0921 40.0438 74.1556 39.8062 74.2239 39.5443C74.2923 39.2727 74.3655 39.0011 74.4437 38.7295C74.5218 38.4579 74.6048 38.196 74.6927 37.9438C74.7806 37.6819 74.8734 37.4491 74.971 37.2454L78.7795 30.0287H84.6974V50.8931Z" fill="#212129"/>
<path d="M102.114 50.8931H89.5166V30.0287H101.631V33.8553H94.248V38.4967H101.118V42.3087H94.248V47.081H102.114V50.8931Z" fill="#212129"/>
<path d="M104.516 50.0928V45.4369C105.366 46.145 106.289 46.6785 107.285 47.0374C108.281 47.3866 109.287 47.5612 110.302 47.5612C110.898 47.5612 111.416 47.5078 111.855 47.4011C112.304 47.2944 112.675 47.1489 112.968 46.9646C113.271 46.7706 113.496 46.5476 113.642 46.2954C113.789 46.0335 113.862 45.7522 113.862 45.4515C113.862 45.0441 113.745 44.6803 113.51 44.3602C113.276 44.0401 112.954 43.7443 112.544 43.4727C112.143 43.2011 111.665 42.9392 111.108 42.687C110.551 42.4348 109.951 42.1778 109.306 41.9159C107.666 41.2369 106.44 40.4076 105.63 39.4279C104.829 38.4482 104.428 37.2648 104.428 35.8777C104.428 34.7914 104.648 33.8602 105.088 33.0842C105.527 32.2985 106.123 31.6535 106.875 31.1491C107.636 30.6447 108.515 30.2761 109.511 30.0433C110.507 29.8008 111.562 29.6795 112.675 29.6795C113.769 29.6795 114.736 29.7474 115.576 29.8832C116.425 30.0093 117.207 30.2082 117.919 30.4798V34.8301C117.568 34.5877 117.182 34.3743 116.762 34.19C116.352 34.0057 115.927 33.8553 115.488 33.7389C115.048 33.6128 114.609 33.5207 114.169 33.4625C113.74 33.4043 113.33 33.3752 112.939 33.3752C112.402 33.3752 111.914 33.4285 111.474 33.5352C111.035 33.6322 110.664 33.7729 110.361 33.9572C110.058 34.1415 109.824 34.3646 109.658 34.6265C109.492 34.8786 109.409 35.1648 109.409 35.4849C109.409 35.8341 109.502 36.1493 109.687 36.4306C109.873 36.7022 110.136 36.9641 110.478 37.2163C110.82 37.4588 111.235 37.7013 111.723 37.9438C112.212 38.1766 112.763 38.4191 113.379 38.6713C114.218 39.0205 114.97 39.3939 115.634 39.7916C116.308 40.1796 116.884 40.621 117.363 41.1156C117.841 41.6103 118.208 42.1778 118.461 42.818C118.715 43.4485 118.842 44.1856 118.842 45.0295C118.842 46.1935 118.618 47.1732 118.168 47.9686C117.729 48.7543 117.128 49.3945 116.367 49.8891C115.605 50.3741 114.716 50.7233 113.701 50.9367C112.695 51.1501 111.63 51.2568 110.507 51.2568C109.355 51.2568 108.257 51.1598 107.212 50.9658C106.176 50.7718 105.278 50.4808 104.516 50.0928Z" fill="#212129"/>
<path d="M137.05 33.8553H131.059V50.8931H126.313V33.8553H120.351V30.0287H137.05V33.8553Z" fill="#212129"/>
<path d="M152.474 50.8931H139.877V30.0287H151.991V33.8553H144.608V38.4967H151.478V42.3087H144.608V47.081H152.474V50.8931Z" fill="#212129"/>
<path d="M174.103 48.1417L168.723 48.9514L164.678 44.1229C164.375 43.756 164.088 43.4308 163.818 43.1473C163.547 42.8639 163.279 42.6292 163.013 42.4433C162.755 42.2463 162.492 42.1091 162.223 42.0317C161.962 41.9432 161.687 41.9208 161.397 41.9644L160.135 42.1543L161.342 50.0623L156.658 50.7672L153.507 30.1115L160.932 28.9941C165.978 28.2346 168.787 29.7274 169.358 33.4725C169.468 34.1927 169.459 34.8768 169.33 35.5249C169.2 36.1633 168.97 36.758 168.638 37.3088C168.307 37.8597 167.878 38.3564 167.352 38.799C166.836 39.2401 166.241 39.6147 165.566 39.9225L165.574 39.9801C165.898 40.0296 166.222 40.143 166.546 40.3202C166.868 40.4878 167.187 40.6953 167.501 40.9426C167.816 41.19 168.12 41.4635 168.413 41.7632C168.714 42.0519 168.99 42.3394 169.242 42.6257L174.103 48.1417ZM158.723 32.8924L159.599 38.6397L161.63 38.3341C162.635 38.1828 163.398 37.7732 163.919 37.1054C164.449 36.4265 164.648 35.6549 164.516 34.7907C164.24 32.9853 163.015 32.2464 160.84 32.5737L158.723 32.8924Z" fill="#212129"/>
</g>
</g>
</svg>
