<svg width="135" height="136" viewBox="0 0 135 136" fill="none" xmlns="http://www.w3.org/2000/svg">
<g clip-path="url(#clip0_134_1161)">
<path d="M113.488 106.612C113.789 106.223 114.141 105.952 114.544 105.799C114.946 105.647 115.37 105.614 115.815 105.701C116.26 105.789 116.698 105.998 117.127 106.33C117.558 106.663 117.873 107.034 118.072 107.444C118.271 107.854 118.348 108.273 118.302 108.701C118.256 109.129 118.083 109.538 117.782 109.928C117.481 110.318 117.129 110.589 116.727 110.741C116.324 110.894 115.899 110.926 115.452 110.837C115.005 110.748 114.566 110.537 114.135 110.204C113.706 109.873 113.393 109.503 113.195 109.094C112.998 108.686 112.923 108.268 112.968 107.839C113.014 107.411 113.187 107.002 113.488 106.612ZM114.165 107.139C113.97 107.392 113.875 107.653 113.881 107.922C113.886 108.191 113.969 108.451 114.129 108.701C114.289 108.954 114.502 109.183 114.769 109.389C115.034 109.594 115.309 109.742 115.593 109.832C115.878 109.925 116.153 109.941 116.416 109.88C116.679 109.818 116.909 109.661 117.104 109.408C117.3 109.154 117.395 108.891 117.39 108.619C117.382 108.348 117.298 108.086 117.137 107.832C116.977 107.581 116.764 107.354 116.499 107.149C116.232 106.943 115.957 106.794 115.673 106.702C115.389 106.612 115.116 106.598 114.854 106.661C114.591 106.726 114.361 106.885 114.165 107.139Z" fill="#15141A"/>
<path d="M115.357 112.908L114.671 113.676L110.468 109.922C110.204 109.686 110.024 109.439 109.929 109.181C109.831 108.925 109.819 108.661 109.891 108.39C109.962 108.121 110.119 107.851 110.363 107.578C110.387 107.551 110.41 107.525 110.432 107.501C110.455 107.475 110.479 107.45 110.505 107.424L111.165 108.014C111.144 108.038 111.125 108.059 111.108 108.078C111.093 108.095 111.075 108.115 111.055 108.137C110.893 108.318 110.825 108.493 110.851 108.661C110.873 108.829 110.976 108.994 111.159 109.158L115.357 112.908ZM115.626 113.832C115.745 113.698 115.892 113.623 116.067 113.607C116.242 113.594 116.392 113.643 116.517 113.755C116.644 113.868 116.709 114.012 116.714 114.185C116.719 114.362 116.662 114.518 116.543 114.651C116.424 114.785 116.277 114.858 116.102 114.871C115.927 114.888 115.776 114.839 115.649 114.726C115.524 114.614 115.459 114.47 115.454 114.293C115.449 114.119 115.507 113.966 115.626 113.832Z" fill="#15141A"/>
<path d="M36.5043 8.84047L40.6254 13.2526L40.6973 13.2204L40.1382 7.20884L41.1818 6.74025L41.7522 14.1734L40.6367 14.6743L35.4606 9.30905L36.5043 8.84047Z" fill="#15141A"/>
<path d="M44.809 12.9434L43.0203 7.99804L43.9829 7.64984L45.7717 12.5952L44.809 12.9434ZM43.2304 7.05914C43.063 7.1197 42.899 7.11591 42.7384 7.04777C42.5792 6.97671 42.4713 6.86284 42.4146 6.70615C42.3572 6.54731 42.3673 6.39074 42.445 6.23643C42.524 6.07919 42.6473 5.97029 42.8147 5.90974C42.9821 5.84918 43.1454 5.85443 43.3046 5.92549C43.4652 5.99363 43.5742 6.10712 43.6316 6.26595C43.6883 6.42264 43.6771 6.5796 43.5981 6.73684C43.5204 6.89115 43.3979 6.99859 43.2304 7.05914Z" fill="#15141A"/>
<path d="M49.1609 11.6153C48.6632 11.76 48.2036 11.7783 47.7822 11.6702C47.3623 11.5592 46.9984 11.338 46.6905 11.0066C46.384 10.6724 46.1547 10.2433 46.0023 9.71929C45.8519 9.20183 45.8158 8.71771 45.894 8.26694C45.9744 7.81553 46.1567 7.42843 46.441 7.10562C46.7274 6.78217 47.1052 6.55224 47.5745 6.41583C47.8595 6.33296 48.1495 6.29979 48.4444 6.31631C48.7393 6.33282 49.0224 6.41103 49.2938 6.55092C49.5651 6.69081 49.809 6.90407 50.0255 7.19069C50.2413 7.47512 50.4159 7.84646 50.5491 8.30472L50.6505 8.65335L46.6346 9.82082L46.4205 9.08409L49.4726 8.19678C49.3974 7.93805 49.2782 7.72422 49.1149 7.55528C48.951 7.38416 48.7568 7.26822 48.5323 7.20746C48.3099 7.14607 48.0716 7.15235 47.8172 7.22629C47.5409 7.30661 47.3195 7.4447 47.1529 7.64056C46.9879 7.83359 46.881 8.0549 46.8323 8.30448C46.7851 8.55123 46.7982 8.80068 46.8715 9.05284L47.0388 9.6284C47.137 9.96607 47.2797 10.2361 47.4669 10.4385C47.6564 10.6402 47.8767 10.7724 48.1279 10.8349C48.3785 10.8952 48.6474 10.8836 48.9346 10.8001C49.121 10.7459 49.2833 10.6702 49.4215 10.573C49.559 10.4735 49.6681 10.3538 49.7487 10.2139C49.8293 10.0739 49.8762 9.91641 49.8895 9.74133L50.8691 9.63847C50.8742 9.93423 50.8103 10.2132 50.6772 10.4754C50.5457 10.7348 50.3519 10.9635 50.0956 11.1617C49.8409 11.357 49.5293 11.5082 49.1609 11.6153Z" fill="#15141A"/>
<path d="M53.2844 10.4366L50.8505 5.52227L51.8929 5.3394L53.576 8.96669L53.6266 8.95781L53.9778 4.97365L55.0203 4.79078L56.697 8.4018L56.7476 8.39292L57.0917 4.4274L58.1341 4.24453L57.5217 9.6933L56.4927 9.87381L54.7838 6.31713L54.7062 6.33074L54.31 10.2567L53.2844 10.4366Z" fill="#15141A"/>
<path d="M62.3524 9.21013L62.2122 2.19547L64.7125 2.14546C65.2582 2.13455 65.7123 2.22483 66.0748 2.41632C66.4373 2.60781 66.711 2.87417 66.896 3.2154C67.081 3.55435 67.1777 3.93847 67.1863 4.36775C67.195 4.79932 67.1125 5.1893 66.939 5.53771C66.7678 5.88378 66.5038 6.1609 66.147 6.36905C65.7925 6.57488 65.3435 6.68323 64.8 6.6941L63.0806 6.72849L63.0627 5.8311L64.6862 5.79863C65.031 5.79174 65.3095 5.72677 65.5218 5.60374C65.734 5.47843 65.8883 5.31087 65.9846 5.10107C66.0809 4.89127 66.1264 4.65393 66.1211 4.38906C66.1158 4.12418 66.0609 3.88999 65.9563 3.6865C65.8517 3.483 65.6898 3.32519 65.4705 3.21308C65.2536 3.10091 64.9693 3.04835 64.6176 3.05538L63.2887 3.08196L63.4108 9.18896L62.3524 9.21013Z" fill="#15141A"/>
<path d="M68.2679 9.17375L68.5836 3.91275L69.5735 3.97214L69.5233 4.80788L69.5781 4.81116C69.691 4.53377 69.8733 4.32128 70.1251 4.17368C70.3793 4.02393 70.6605 3.95831 70.9688 3.9768C71.0327 3.98064 71.1079 3.98744 71.1944 3.99722C71.2832 4.00713 71.3525 4.01701 71.4023 4.02688L71.3436 5.00646C71.3031 4.99258 71.2308 4.97564 71.1266 4.95564C71.0225 4.93335 70.918 4.91905 70.8129 4.91275C70.5709 4.89823 70.352 4.93666 70.1563 5.02804C69.9631 5.11728 69.8062 5.2488 69.6858 5.42262C69.5655 5.59415 69.4985 5.79408 69.4848 6.02242L69.292 9.23519L68.2679 9.17375Z" fill="#15141A"/>
<path d="M73.8276 9.77814C73.3385 9.71402 72.9265 9.54599 72.5913 9.27406C72.2562 9.00212 72.0143 8.65145 71.8657 8.22203C71.717 7.79261 71.678 7.30848 71.7487 6.76964C71.8196 6.22853 71.9824 5.76856 72.2371 5.38972C72.4917 5.01087 72.816 4.73328 73.2099 4.55693C73.6038 4.38059 74.0452 4.32448 74.5343 4.3886C75.0233 4.45272 75.4354 4.62075 75.7705 4.89268C76.1056 5.16462 76.3473 5.51643 76.4957 5.94811C76.6441 6.37979 76.6828 6.86619 76.6118 7.40729C76.5412 7.94613 76.3787 8.40384 76.1243 8.78042C75.87 9.157 75.5459 9.43346 75.152 9.60981C74.7581 9.78615 74.3166 9.84226 73.8276 9.77814ZM73.9427 8.92618C74.2597 8.96774 74.5333 8.9184 74.7636 8.77818C74.9938 8.63795 75.177 8.43513 75.3132 8.16971C75.4516 7.90459 75.5427 7.6045 75.5867 7.26942C75.6303 6.93661 75.6194 6.62428 75.5541 6.33245C75.4913 6.03864 75.3668 5.79318 75.1808 5.59607C74.9948 5.39896 74.7433 5.27962 74.4263 5.23806C74.1071 5.1962 73.8311 5.24637 73.5983 5.38857C73.3677 5.53106 73.1831 5.73599 73.0444 6.00338C72.9082 6.26879 72.8184 6.5679 72.7747 6.90072C72.7308 7.2358 72.7404 7.5491 72.8035 7.84064C72.8688 8.13248 72.9947 8.37582 73.181 8.57067C73.3696 8.76582 73.6235 8.88432 73.9427 8.92618Z" fill="#15141A"/>
<path d="M78.244 5.07421L79.2476 5.26879L78.1829 10.7602C78.1161 11.1048 77.9971 11.3836 77.8258 11.5965C77.6567 11.8098 77.4383 11.9544 77.1705 12.0302C76.905 12.1064 76.5943 12.11 76.2385 12.0411C76.2027 12.0341 76.1691 12.0276 76.1378 12.0215C76.1042 12.015 76.0697 12.0072 76.0344 11.998L76.2016 11.1353C76.233 11.1414 76.2609 11.1468 76.2855 11.1516C76.3079 11.156 76.3337 11.1609 76.3627 11.1666C76.5999 11.2126 76.7835 11.182 76.9134 11.0748C77.0451 10.9703 77.1342 10.7984 77.1806 10.5589L78.244 5.07421ZM78.895 4.375C78.7204 4.34116 78.5818 4.25391 78.479 4.11326C78.3789 3.97079 78.3447 3.81788 78.3764 3.65453C78.4085 3.48894 78.4974 3.35989 78.643 3.26739C78.7913 3.17308 78.9528 3.14285 79.1273 3.17669C79.3018 3.21053 79.4392 3.29868 79.5392 3.44114C79.642 3.5818 79.6773 3.73493 79.6452 3.90052C79.6135 4.06388 79.5236 4.19271 79.3752 4.28701C79.2296 4.37951 79.0695 4.40884 78.895 4.375Z" fill="#15141A"/>
<path d="M81.6405 11.335C81.1398 11.2012 80.7371 10.979 80.4325 10.6683C80.1306 10.3561 79.9337 9.97848 79.8417 9.53555C79.7525 9.09101 79.7784 8.60511 79.9192 8.07787C80.0583 7.55725 80.278 7.12434 80.5782 6.77912C80.8807 6.4345 81.237 6.19765 81.6473 6.06856C82.0598 5.94007 82.5021 5.93889 82.9742 6.06503C83.261 6.14166 83.5263 6.26336 83.7701 6.43013C84.0139 6.5969 84.2156 6.81036 84.3754 7.07049C84.5351 7.33062 84.6335 7.63933 84.6704 7.99663C84.7078 8.35171 84.665 8.75979 84.5418 9.22085L84.4481 9.57161L80.4077 8.49202L80.6058 7.7508L83.6766 8.57132C83.7461 8.31101 83.7548 8.06633 83.7025 7.83729C83.6509 7.60604 83.5447 7.40632 83.384 7.23811C83.2255 7.0705 83.0183 6.95251 82.7624 6.88413C82.4845 6.80986 82.2236 6.81341 81.9796 6.89477C81.7385 6.97452 81.5325 7.10856 81.3617 7.2969C81.1936 7.48361 81.0757 7.70382 81.0079 7.95751L80.8532 8.53659C80.7624 8.87632 80.7447 9.18123 80.8002 9.45131C80.8579 9.72198 80.978 9.94907 81.1606 10.1326C81.3438 10.3139 81.5798 10.4431 81.8688 10.5204C82.0563 10.5705 82.2344 10.5897 82.403 10.578C82.5721 10.5641 82.7274 10.5181 82.8688 10.4401C83.0102 10.3621 83.1319 10.2516 83.2339 10.1087L84.1252 10.5277C83.9765 10.7834 83.7774 10.989 83.5279 11.1445C83.2812 11.2983 82.9969 11.3937 82.675 11.4306C82.356 11.4659 82.0111 11.4341 81.6405 11.335Z" fill="#15141A"/>
<path d="M86.7969 12.9792C86.3187 12.8041 85.9467 12.5451 85.6808 12.2021C85.4178 11.8578 85.2643 11.46 85.2205 11.0086C85.1766 10.5573 85.2453 10.084 85.4267 9.58866C85.6104 9.08691 85.8669 8.67868 86.1961 8.36395C86.5261 8.04708 86.9023 7.84317 87.3247 7.75222C87.747 7.66127 88.1908 7.70098 88.6561 7.87135C89.0314 8.00874 89.3404 8.2009 89.5831 8.44783C89.8266 8.69262 89.9929 8.97235 90.0819 9.28702C90.1731 9.60249 90.175 9.93267 90.0876 10.2776L89.1517 9.93489C89.185 9.68448 89.1401 9.44189 89.0169 9.20712C88.8959 8.97314 88.6821 8.80001 88.3755 8.68775C88.1074 8.58961 87.8467 8.5744 87.5934 8.64212C87.3429 8.70848 87.1145 8.85097 86.908 9.0696C86.7022 9.28608 86.535 9.57014 86.4063 9.92179C86.2744 10.282 86.2152 10.6129 86.2288 10.9146C86.2423 11.2162 86.3225 11.4754 86.4694 11.692C86.6183 11.9095 86.8289 12.0681 87.1013 12.1678C87.2835 12.2345 87.4608 12.2617 87.6331 12.2494C87.8083 12.2358 87.9694 12.1842 88.1165 12.0945C88.2658 12.0057 88.3934 11.8798 88.4993 11.7167L89.4352 12.0594C89.2839 12.3663 89.0755 12.6135 88.81 12.8007C88.5444 12.988 88.2396 13.1001 87.8954 13.137C87.5533 13.1747 87.1871 13.1221 86.7969 12.9792Z" fill="#15141A"/>
<path d="M94.1277 10.2606L93.7907 11.0086L91.1756 9.83042L91.5127 9.08238L94.1277 10.2606ZM92.7307 8.25134L93.6627 8.67122L91.6222 13.2C91.5408 13.3808 91.5065 13.5291 91.5193 13.6448C91.5331 13.7585 91.5751 13.8512 91.6453 13.9228C91.7185 13.9933 91.806 14.0515 91.9078 14.0974C91.9826 14.1311 92.0504 14.1554 92.1112 14.1703C92.172 14.1852 92.2194 14.1965 92.2534 14.2043L92.0748 15.05C92.0114 15.0464 91.9252 15.0326 91.8161 15.0084C91.706 14.9863 91.5758 14.9426 91.4252 14.8773C91.1781 14.771 90.9692 14.6244 90.7985 14.4375C90.6277 14.2505 90.52 14.032 90.4752 13.7819C90.4304 13.5317 90.4731 13.2622 90.6032 12.9734L92.7307 8.25134Z" fill="#15141A"/>
<path d="M103.974 13.8668L102.187 19.6339L102.251 19.6803L107.193 16.2127L108.118 16.8864L101.947 21.069L100.959 20.3489L103.049 13.1931L103.974 13.8668Z" fill="#15141A"/>
<path d="M104.541 23.1176L107.941 19.1034L108.723 19.7654L105.322 23.7795L104.541 23.1176ZM108.861 18.8183C108.725 18.7032 108.646 18.559 108.626 18.3857C108.608 18.2122 108.653 18.0619 108.761 17.9347C108.87 17.8058 109.011 17.7366 109.184 17.7272C109.359 17.7175 109.515 17.7702 109.651 17.8853C109.787 18.0005 109.864 18.1448 109.881 18.3183C109.902 18.4916 109.858 18.6426 109.749 18.7716C109.641 18.8988 109.499 18.9672 109.323 18.9769C109.151 18.9863 108.997 18.9334 108.861 18.8183Z" fill="#15141A"/>
<path d="M107.847 26.2319C107.474 25.8722 107.229 25.4826 107.113 25.0633C107.001 24.6438 107.011 24.2181 107.146 23.7861C107.283 23.354 107.541 22.9415 107.92 22.5486C108.294 22.1607 108.696 21.8884 109.126 21.732C109.557 21.5771 109.984 21.5427 110.405 21.6286C110.828 21.7161 111.216 21.9295 111.568 22.2686C111.781 22.4746 111.954 22.7096 112.087 22.9737C112.219 23.2377 112.292 23.5222 112.306 23.8272C112.32 24.1321 112.256 24.4498 112.115 24.7802C111.976 25.109 111.741 25.4452 111.409 25.7887L111.157 26.0501L108.146 23.1476L108.679 22.5953L110.967 24.8013C111.154 24.6073 111.28 24.3974 111.346 24.1718C111.413 23.9445 111.417 23.7183 111.358 23.4933C111.3 23.2699 111.176 23.0663 110.985 22.8824C110.778 22.6828 110.548 22.5594 110.296 22.5124C110.046 22.4652 109.801 22.4827 109.56 22.5646C109.323 22.6465 109.113 22.7819 108.931 22.971L108.515 23.4025C108.27 23.6557 108.107 23.9138 108.025 24.1769C107.944 24.4416 107.939 24.6985 108.01 24.9475C108.082 25.1949 108.226 25.4224 108.441 25.63C108.581 25.7647 108.728 25.8678 108.881 25.9392C109.035 26.0091 109.194 26.0441 109.355 26.0444C109.517 26.0447 109.677 26.007 109.835 25.9314L110.412 26.7299C110.158 26.8815 109.884 26.9649 109.59 26.98C109.3 26.995 109.005 26.9406 108.705 26.8169C108.409 26.6932 108.123 26.4982 107.847 26.2319Z" fill="#15141A"/>
<path d="M110.939 29.2249L113.999 24.6658L114.676 25.4807L112.361 28.7473L112.394 28.7868L116.031 27.1106L116.708 27.9256L114.404 31.1785L114.437 31.218L118.054 29.5449L118.732 30.3598L113.692 32.5374L113.024 31.733L115.264 28.4792L115.214 28.4185L111.605 30.0267L110.939 29.2249Z" fill="#15141A"/>
<path d="M116.555 36.45L122.588 32.8024L123.888 34.9527C124.172 35.422 124.322 35.8625 124.337 36.2741C124.353 36.6857 124.259 37.0577 124.055 37.3902C123.853 37.7215 123.567 37.9987 123.198 38.2219C122.827 38.4464 122.446 38.5706 122.056 38.5948C121.669 38.6197 121.295 38.5293 120.934 38.3235C120.577 38.1185 120.257 37.7823 119.975 37.315L119.08 35.8363L119.852 35.3696L120.696 36.7659C120.876 37.0624 121.072 37.2721 121.286 37.3949C121.502 37.5166 121.725 37.5666 121.956 37.5449C122.187 37.5233 122.416 37.4436 122.644 37.3059C122.872 37.1681 123.048 37.0026 123.172 36.8094C123.297 36.6161 123.353 36.3959 123.34 36.1488C123.329 35.9036 123.232 35.6299 123.049 35.3274L122.358 34.1845L117.106 37.3602L116.555 36.45Z" fill="#15141A"/>
<path d="M120.353 41.151L125.035 38.7835L125.481 39.6645L124.737 40.0406L124.761 40.0894C125.057 40.0473 125.331 40.0975 125.584 40.24C125.84 40.3834 126.038 40.5924 126.177 40.8667C126.205 40.9236 126.237 40.9917 126.272 41.071C126.308 41.1523 126.334 41.2168 126.351 41.2646L125.479 41.7055C125.471 41.6637 125.449 41.5931 125.414 41.4934C125.381 41.3927 125.341 41.2956 125.294 41.2022C125.185 40.9867 125.042 40.8178 124.865 40.6954C124.691 40.574 124.5 40.5051 124.29 40.4887C124.082 40.4713 123.876 40.514 123.673 40.6167L120.814 42.0625L120.353 41.151Z" fill="#15141A"/>
<path d="M121.728 46.7084C121.541 46.2521 121.483 45.8109 121.552 45.385C121.622 44.9591 121.806 44.5751 122.105 44.2329C122.404 43.8907 122.805 43.6165 123.308 43.4104C123.813 43.2034 124.293 43.1164 124.748 43.1494C125.204 43.1824 125.606 43.3261 125.954 43.5805C126.303 43.835 126.571 44.1903 126.758 44.6467C126.945 45.1031 127.004 45.5442 126.934 45.9701C126.864 46.396 126.679 46.7805 126.378 47.1236C126.076 47.4666 125.673 47.7417 125.168 47.9487C124.666 48.1548 124.188 48.2409 123.734 48.207C123.281 48.1732 122.88 48.029 122.532 47.7746C122.183 47.5202 121.915 47.1648 121.728 46.7084ZM122.525 46.3855C122.646 46.6813 122.825 46.8944 123.061 47.0246C123.297 47.1549 123.564 47.2133 123.862 47.1997C124.161 47.1883 124.467 47.1184 124.779 46.9903C125.09 46.863 125.356 46.6985 125.576 46.4969C125.8 46.2965 125.952 46.0667 126.03 45.8073C126.109 45.548 126.088 45.2705 125.967 44.9747C125.845 44.6768 125.664 44.462 125.425 44.3305C125.187 44.2011 124.917 44.1425 124.616 44.1549C124.318 44.1684 124.014 44.2389 123.704 44.3662C123.391 44.4944 123.124 44.6582 122.902 44.8577C122.681 45.0593 122.532 45.2893 122.456 45.5478C122.38 45.8084 122.403 46.0876 122.525 46.3855Z" fill="#15141A"/>
<path d="M128.04 48.2342L128.365 49.2054L123.051 50.9834C122.717 51.095 122.415 51.1286 122.145 51.0841C121.876 51.0418 121.642 50.9226 121.444 50.7264C121.247 50.5324 121.091 50.2632 120.975 49.9189C120.964 49.8843 120.953 49.8518 120.943 49.8215C120.932 49.789 120.922 49.7551 120.912 49.7197L121.747 49.4404C121.757 49.4707 121.766 49.4978 121.774 49.5216C121.781 49.5432 121.79 49.5681 121.799 49.5963C121.876 49.8258 121.993 49.9708 122.151 50.0313C122.307 50.0947 122.501 50.0876 122.732 50.0101L128.04 48.2342ZM128.97 48.4574C128.914 48.2885 128.922 48.1245 128.994 47.9656C129.069 47.8081 129.185 47.7029 129.343 47.65C129.503 47.5964 129.66 47.6103 129.812 47.6917C129.967 47.7746 130.073 47.9005 130.13 48.0694C130.186 48.2383 130.177 48.4015 130.102 48.559C130.03 48.7179 129.914 48.8242 129.754 48.8778C129.596 48.9307 129.439 48.9157 129.284 48.8329C129.131 48.7514 129.027 48.6263 128.97 48.4574Z" fill="#15141A"/>
<path d="M124.309 54.2619C124.174 53.7591 124.166 53.2973 124.283 52.8765C124.403 52.4573 124.633 52.0966 124.972 51.7943C125.314 51.4938 125.75 51.2725 126.279 51.1306C126.802 50.9905 127.289 50.9645 127.74 51.0525C128.191 51.1428 128.576 51.334 128.894 51.6262C129.213 51.9207 129.436 52.3049 129.563 52.7789C129.64 53.0668 129.667 53.3586 129.644 53.6544C129.622 53.9501 129.537 54.2328 129.391 54.5022C129.245 54.7717 129.026 55.0121 128.733 55.2234C128.443 55.4341 128.067 55.6015 127.604 55.7256L127.251 55.82L126.164 51.7633L126.908 51.5639L127.735 54.647C127.996 54.577 128.213 54.4618 128.386 54.3014C128.562 54.1405 128.682 53.948 128.748 53.7238C128.814 53.5018 128.813 53.2624 128.744 53.0055C128.669 52.7264 128.535 52.5012 128.342 52.3298C128.152 52.16 127.932 52.048 127.682 51.9938C127.436 51.9413 127.185 51.9491 126.93 52.0174L126.349 52.1732C126.008 52.2647 125.734 52.4022 125.526 52.586C125.32 52.7719 125.182 52.9903 125.114 53.2412C125.049 53.4915 125.055 53.7618 125.132 54.0519C125.183 54.2402 125.255 54.4047 125.35 54.5455C125.447 54.6857 125.565 54.7977 125.704 54.8816C125.842 54.9655 126 55.016 126.175 55.033L126.258 56.0187C125.961 56.0176 125.682 55.9475 125.421 55.8084C125.164 55.6709 124.938 55.4714 124.745 55.2099C124.554 54.95 124.409 54.634 124.309 54.2619Z" fill="#15141A"/>
<path d="M125.436 59.5691C125.35 59.065 125.39 58.6113 125.555 58.2082C125.724 57.8069 125.994 57.4743 126.365 57.2104C126.736 56.9465 127.183 56.7697 127.705 56.68C128.234 56.5892 128.718 56.6085 129.157 56.738C129.598 56.867 129.964 57.0928 130.254 57.4153C130.544 57.7378 130.732 58.1443 130.816 58.6348C130.884 59.0304 130.871 59.3957 130.777 59.7306C130.686 60.0652 130.525 60.3499 130.296 60.5848C130.066 60.822 129.78 60.9888 129.436 61.0851L129.266 60.0984C129.501 60.0022 129.69 59.8417 129.833 59.6171C129.976 59.3946 130.02 59.1218 129.964 58.7985C129.916 58.5159 129.799 58.2812 129.613 58.0943C129.43 57.9093 129.192 57.7816 128.898 57.711C128.607 57.64 128.275 57.6363 127.905 57.7C127.525 57.7652 127.207 57.8792 126.951 58.0418C126.695 58.2045 126.509 58.4039 126.394 58.6401C126.279 58.8786 126.246 59.1414 126.296 59.4285C126.329 59.6207 126.393 59.7887 126.49 59.9327C126.59 60.0785 126.715 60.1931 126.867 60.2764C127.019 60.362 127.193 60.4102 127.388 60.4209L127.557 61.4077C127.214 61.4293 126.894 61.3713 126.599 61.2336C126.303 61.096 126.052 60.8864 125.848 60.605C125.644 60.3258 125.507 59.9805 125.436 59.5691Z" fill="#15141A"/>
<path d="M131.407 64.5632L130.589 64.6417L130.314 61.7811L131.133 61.7026L131.407 64.5632ZM132.461 62.3494L132.559 63.3688L127.605 63.8441C127.407 63.8631 127.261 63.9069 127.167 63.9756C127.074 64.0441 127.015 64.1266 126.987 64.2233C126.962 64.3221 126.955 64.4271 126.966 64.5385C126.974 64.6203 126.986 64.6914 127.004 64.7516C127.021 64.8119 127.034 64.8588 127.045 64.8922L126.22 65.1571C126.192 65.1002 126.161 65.0183 126.128 64.9114C126.092 64.8047 126.065 64.6696 126.048 64.5062C126.017 64.2384 126.041 63.9838 126.119 63.7423C126.197 63.5009 126.333 63.2986 126.528 63.1353C126.724 62.972 126.98 62.8752 127.295 62.8449L132.461 62.3494Z" fill="#15141A"/>
<path d="M133.152 74.8911L127.263 76.2191L127.254 76.2974L132.725 78.8515L132.602 79.9889L125.899 76.7265L126.03 75.5108L133.275 73.7537L133.152 74.8911Z" fill="#15141A"/>
<path d="M125.422 80.0112L130.597 80.9591L130.412 81.9664L125.237 81.0185L125.422 80.0112ZM131.302 81.6141C131.334 81.4389 131.42 81.2991 131.56 81.1947C131.702 81.093 131.854 81.0571 132.018 81.0872C132.185 81.1176 132.315 81.2053 132.409 81.3502C132.505 81.4978 132.537 81.6592 132.505 81.8344C132.473 82.0096 132.386 82.148 132.244 82.2498C132.104 82.3541 131.951 82.3911 131.785 82.3607C131.621 82.3306 131.491 82.2418 131.395 82.0942C131.301 81.9493 131.27 81.7893 131.302 81.6141Z" fill="#15141A"/>
<path d="M124.368 84.4159C124.494 83.9132 124.71 83.5072 125.016 83.1979C125.324 82.8914 125.699 82.6887 126.14 82.59C126.583 82.4941 127.069 82.5125 127.599 82.6454C128.121 82.7766 128.558 82.9896 128.907 83.2846C129.257 83.5818 129.499 83.9345 129.634 84.3428C129.769 84.7533 129.777 85.1955 129.658 85.6695C129.585 85.9574 129.468 86.2245 129.305 86.4708C129.142 86.7171 128.931 86.922 128.674 87.0857C128.416 87.2494 128.109 87.3524 127.752 87.3947C127.398 87.4376 126.989 87.4009 126.526 87.2847L126.174 87.1964L127.192 83.1401L127.936 83.3269L127.162 86.4098C127.424 86.4754 127.669 86.4803 127.897 86.4246C128.127 86.3694 128.325 86.2602 128.491 86.097C128.656 85.936 128.771 85.727 128.836 85.4701C128.906 85.1911 128.898 84.9302 128.813 84.6876C128.73 84.4477 128.592 84.2438 128.402 84.0758C128.212 83.9106 127.99 83.796 127.736 83.7321L127.154 83.5862C126.813 83.5006 126.508 83.4875 126.239 83.5471C125.969 83.6089 125.744 83.7324 125.563 83.9178C125.385 84.1037 125.259 84.3417 125.186 84.6318C125.139 84.8201 125.122 84.9984 125.137 85.1668C125.153 85.3357 125.201 85.4903 125.282 85.6305C125.362 85.7706 125.474 85.8907 125.619 85.9905L125.213 86.8881C124.955 86.7433 124.747 86.5473 124.587 86.3002C124.43 86.0558 124.33 85.773 124.288 85.4518C124.248 85.1333 124.275 84.788 124.368 84.4159Z" fill="#15141A"/>
<path d="M123.305 88.5766L128.776 88.9565L128.408 89.9487L124.427 89.5704L124.409 89.6185L127.671 91.933L127.303 92.9252L123.339 92.5496L123.321 92.5978L126.571 94.8967L126.202 95.8889L121.808 92.6095L122.171 91.6302L126.104 91.9506L126.132 91.8767L122.943 89.5527L123.305 88.5766Z" fill="#15141A"/>
<path d="M119.769 97.0107L125.871 100.448L124.646 102.623C124.379 103.098 124.071 103.443 123.722 103.657C123.374 103.872 123.006 103.972 122.619 103.958C122.233 103.945 121.854 103.833 121.481 103.623C121.105 103.412 120.812 103.143 120.6 102.817C120.389 102.494 120.285 102.127 120.287 101.714C120.29 101.305 120.424 100.864 120.691 100.391L121.533 98.8955L122.314 99.3352L121.518 100.748C121.349 101.048 121.264 101.32 121.262 101.565C121.262 101.811 121.328 102.029 121.46 102.218C121.591 102.407 121.772 102.567 122.003 102.696C122.233 102.826 122.462 102.898 122.69 102.911C122.918 102.924 123.136 102.865 123.344 102.733C123.55 102.604 123.74 102.386 123.912 102.08L124.563 100.924L119.25 97.9314L119.769 97.0107Z" fill="#15141A"/>
<path d="M116.813 102.124L121.187 105.048L120.637 105.871L119.942 105.406L119.912 105.452C120.094 105.689 120.185 105.953 120.185 106.244C120.186 106.539 120.101 106.814 119.93 107.071C119.894 107.124 119.85 107.185 119.798 107.255C119.745 107.326 119.702 107.381 119.668 107.419L118.854 106.874C118.886 106.847 118.937 106.793 119.007 106.713C119.078 106.635 119.143 106.552 119.202 106.465C119.336 106.263 119.414 106.055 119.433 105.841C119.454 105.629 119.42 105.428 119.331 105.236C119.243 105.046 119.105 104.888 118.915 104.761L116.244 102.976L116.813 102.124Z" fill="#15141A"/>
<path d="M108.183 112.57C108.552 112.206 108.948 111.972 109.37 111.866C109.792 111.764 110.217 111.785 110.646 111.93C111.074 112.078 111.48 112.346 111.864 112.735C112.242 113.118 112.504 113.527 112.65 113.96C112.794 114.396 112.818 114.823 112.722 115.242C112.624 115.663 112.401 116.045 112.053 116.388C111.842 116.597 111.603 116.764 111.335 116.89C111.068 117.016 110.782 117.082 110.477 117.088C110.171 117.094 109.855 117.022 109.529 116.873C109.203 116.726 108.873 116.482 108.538 116.143L108.283 115.884L111.259 112.946L111.798 113.492L109.536 115.725C109.725 115.917 109.932 116.048 110.156 116.119C110.382 116.192 110.608 116.201 110.834 116.148C111.059 116.096 111.265 115.977 111.454 115.791C111.659 115.589 111.788 115.362 111.841 115.111C111.894 114.862 111.883 114.617 111.807 114.374C111.731 114.135 111.601 113.921 111.416 113.735L110.995 113.308C110.748 113.058 110.494 112.888 110.233 112.799C109.97 112.712 109.714 112.701 109.463 112.765C109.214 112.831 108.983 112.97 108.77 113.18C108.632 113.316 108.525 113.46 108.45 113.611C108.376 113.764 108.338 113.921 108.333 114.083C108.329 114.244 108.363 114.405 108.434 114.565L107.622 115.122C107.476 114.864 107.4 114.589 107.392 114.295C107.384 114.004 107.446 113.711 107.577 113.414C107.708 113.121 107.91 112.84 108.183 112.57Z" fill="#15141A"/>
<path d="M104.148 116.193C104.541 115.869 104.953 115.678 105.383 115.622C105.813 115.569 106.234 115.638 106.645 115.828C107.057 116.018 107.431 116.317 107.767 116.724C108.107 117.136 108.329 117.563 108.435 118.006C108.541 118.451 108.527 118.879 108.392 119.289C108.257 119.7 107.999 120.063 107.617 120.378C107.309 120.633 106.987 120.802 106.651 120.887C106.317 120.973 105.991 120.975 105.675 120.893C105.356 120.813 105.071 120.647 104.817 120.398L105.586 119.763C105.785 119.918 106.017 120.002 106.282 120.015C106.545 120.028 106.802 119.931 107.054 119.723C107.274 119.542 107.419 119.324 107.489 119.072C107.558 118.822 107.55 118.553 107.466 118.264C107.383 117.977 107.223 117.689 106.984 117.401C106.74 117.105 106.484 116.886 106.217 116.746C105.95 116.605 105.686 116.543 105.425 116.561C105.162 116.579 104.918 116.681 104.695 116.865C104.545 116.989 104.432 117.128 104.356 117.283C104.279 117.441 104.242 117.606 104.245 117.779C104.246 117.952 104.29 118.126 104.378 118.3L103.609 118.934C103.421 118.649 103.313 118.344 103.285 118.02C103.258 117.696 103.315 117.377 103.457 117.061C103.598 116.747 103.828 116.457 104.148 116.193Z" fill="#15141A"/>
<path d="M102.821 123.977L102.344 123.303L104.7 121.636L105.177 122.31L102.821 123.977ZM105.276 123.791L104.436 124.385L101.55 120.304C101.435 120.141 101.324 120.036 101.217 119.988C101.111 119.941 101.009 119.931 100.911 119.955C100.813 119.982 100.718 120.029 100.626 120.094C100.558 120.141 100.503 120.188 100.459 120.233C100.415 120.278 100.381 120.313 100.357 120.339L99.7144 119.752C99.7499 119.699 99.8059 119.631 99.8826 119.549C99.9579 119.465 100.062 119.374 100.196 119.277C100.414 119.117 100.648 119.011 100.897 118.958C101.146 118.905 101.391 118.923 101.631 119.012C101.87 119.101 102.082 119.275 102.267 119.536L105.276 123.791Z" fill="#15141A"/>
<path d="M94.9148 127.328C80.2899 134.665 63.4269 136.181 47.7275 131.573C32.0282 126.964 18.6608 116.573 10.322 102.496C1.98326 88.4182 -0.706324 71.7022 2.79584 55.7195C6.298 39.7369 15.7313 25.6772 29.1927 16.3767" stroke="#15141A" stroke-width="2.57204" stroke-miterlimit="10"/>
<path d="M60.0001 56.957L67.9571 49M67.9571 49L75.9141 56.957M67.9571 49V87.1936" stroke="#15141A" stroke-width="2.51274" stroke-linecap="square" stroke-linejoin="round"/>
</g>
<defs>
<clipPath id="clip0_134_1161">
<rect width="135" height="135" fill="white" transform="translate(0 0.475098)"/>
</clipPath>
</defs>
</svg>
